<?xml version="1.0" encoding="UTF-8" standalone="no"?>
<!DOCTYPE svg PUBLIC "-//W3C//DTD SVG 1.1//EN"
 "http://www.w3.org/Graphics/SVG/1.1/DTD/svg11.dtd">
<!-- Generated by graphviz version 5.0.0 (20220707.1540)
 -->
<!-- Title: dependencies Pages: 1 -->
<svg width="1863pt" height="247pt"
 viewBox="0.00 0.00 1863.00 246.80" xmlns="http://www.w3.org/2000/svg" xmlns:xlink="http://www.w3.org/1999/xlink">
<g id="graph0" class="graph" transform="scale(1 1) rotate(0) translate(4 242.8)">
<title>dependencies</title>
<polygon fill="white" stroke="transparent" points="-4,4 -4,-242.8 1859,-242.8 1859,4 -4,4"/>
<text text-anchor="middle" x="927.5" y="-8.2" font-family="sans-serif" font-size="14.00">dependencies</text>
<g id="clust1" class="cluster">
<title>cluster_AppModule</title>
<polygon fill="none" stroke="black" stroke-dasharray="1,5" points="8,-32.8 8,-230.8 1847,-230.8 1847,-32.8 8,-32.8"/>
</g>
<g id="clust16" class="cluster">
<title>cluster_AppModule_bootstrap</title>
<polygon fill="none" stroke="black" points="805,-170.8 805,-222.8 929,-222.8 929,-170.8 805,-170.8"/>
</g>
<g id="clust14" class="cluster">
<title>cluster_AppModule_imports</title>
<polygon fill="none" stroke="black" points="1695,-40.8 1695,-92.8 1839,-92.8 1839,-40.8 1695,-40.8"/>
</g>
<g id="clust2" class="cluster">
<title>cluster_AppModule_declarations</title>
<polygon fill="none" stroke="black" points="16,-40.8 16,-92.8 1687,-92.8 1687,-40.8 16,-40.8"/>
</g>
<!-- AppComponent -->
<g id="node1" class="node">
<title>AppComponent</title>
<polygon fill="#ffffb3" stroke="black" points="1678.94,-84.8 1573.06,-84.8 1573.06,-48.8 1678.94,-48.8 1678.94,-84.8"/>
<text text-anchor="middle" x="1626" y="-62.6" font-family="Times,serif" font-size="14.00">AppComponent</text>
</g>
<!-- AppModule -->
<g id="node12" class="node">
<title>AppModule</title>
<polygon fill="#8dd3c7" stroke="black" points="908.66,-149.8 905.66,-153.8 884.66,-153.8 881.66,-149.8 825.34,-149.8 825.34,-113.8 908.66,-113.8 908.66,-149.8"/>
<text text-anchor="middle" x="867" y="-127.6" font-family="Times,serif" font-size="14.00">AppModule</text>
</g>
<!-- AppComponent&#45;&gt;AppModule -->
<g id="edge1" class="edge">
<title>AppComponent&#45;&gt;AppModule</title>
<path fill="none" stroke="black" d="M1626,-85.08C1626,-106.12 1626,-137.8 1626,-137.8 1626,-137.8 918.89,-137.8 918.89,-137.8"/>
<polygon fill="black" stroke="black" points="918.89,-134.3 908.89,-137.8 918.89,-141.3 918.89,-134.3"/>
</g>
<!-- CompletedTodosComponent -->
<g id="node2" class="node">
<title>CompletedTodosComponent</title>
<polygon fill="#ffffb3" stroke="black" points="1554.77,-84.8 1377.23,-84.8 1377.23,-48.8 1554.77,-48.8 1554.77,-84.8"/>
<text text-anchor="middle" x="1466" y="-62.6" font-family="Times,serif" font-size="14.00">CompletedTodosComponent</text>
</g>
<!-- CompletedTodosComponent&#45;&gt;AppModule -->
<g id="edge2" class="edge">
<title>CompletedTodosComponent&#45;&gt;AppModule</title>
<path fill="none" stroke="black" d="M1466,-84.91C1466,-104.14 1466,-131.8 1466,-131.8 1466,-131.8 919.12,-131.8 919.12,-131.8"/>
<polygon fill="black" stroke="black" points="919.12,-128.3 909.12,-131.8 919.12,-135.3 919.12,-128.3"/>
</g>
<!-- DeletedTodosComponent -->
<g id="node3" class="node">
<title>DeletedTodosComponent</title>
<polygon fill="#ffffb3" stroke="black" points="1358.86,-84.8 1199.14,-84.8 1199.14,-48.8 1358.86,-48.8 1358.86,-84.8"/>
<text text-anchor="middle" x="1279" y="-62.6" font-family="Times,serif" font-size="14.00">DeletedTodosComponent</text>
</g>
<!-- DeletedTodosComponent&#45;&gt;AppModule -->
<g id="edge3" class="edge">
<title>DeletedTodosComponent&#45;&gt;AppModule</title>
<path fill="none" stroke="black" d="M1279,-84.82C1279,-102.17 1279,-125.8 1279,-125.8 1279,-125.8 918.77,-125.8 918.77,-125.8"/>
<polygon fill="black" stroke="black" points="918.77,-122.3 908.77,-125.8 918.77,-129.3 918.77,-122.3"/>
</g>
<!-- FavouriteTodosComponent -->
<g id="node4" class="node">
<title>FavouriteTodosComponent</title>
<polygon fill="#ffffb3" stroke="black" points="1180.99,-84.8 1011.01,-84.8 1011.01,-48.8 1180.99,-48.8 1180.99,-84.8"/>
<text text-anchor="middle" x="1096" y="-62.6" font-family="Times,serif" font-size="14.00">FavouriteTodosComponent</text>
</g>
<!-- FavouriteTodosComponent&#45;&gt;AppModule -->
<g id="edge4" class="edge">
<title>FavouriteTodosComponent&#45;&gt;AppModule</title>
<path fill="none" stroke="black" d="M1096,-85.04C1096,-100.37 1096,-119.8 1096,-119.8 1096,-119.8 918.74,-119.8 918.74,-119.8"/>
<polygon fill="black" stroke="black" points="918.74,-116.3 908.74,-119.8 918.74,-123.3 918.74,-116.3"/>
</g>
<!-- FooterComponent -->
<g id="node5" class="node">
<title>FooterComponent</title>
<polygon fill="#ffffb3" stroke="black" points="992.88,-84.8 875.12,-84.8 875.12,-48.8 992.88,-48.8 992.88,-84.8"/>
<text text-anchor="middle" x="934" y="-62.6" font-family="Times,serif" font-size="14.00">FooterComponent</text>
</g>
<!-- FooterComponent&#45;&gt;AppModule -->
<g id="edge5" class="edge">
<title>FooterComponent&#45;&gt;AppModule</title>
<path fill="none" stroke="black" d="M891.94,-84.91C891.94,-84.91 891.94,-103.79 891.94,-103.79"/>
<polygon fill="black" stroke="black" points="888.44,-103.79 891.94,-113.79 895.44,-103.79 888.44,-103.79"/>
</g>
<!-- LoginComponent -->
<g id="node6" class="node">
<title>LoginComponent</title>
<polygon fill="#ffffb3" stroke="black" points="857.27,-84.8 742.73,-84.8 742.73,-48.8 857.27,-48.8 857.27,-84.8"/>
<text text-anchor="middle" x="800" y="-62.6" font-family="Times,serif" font-size="14.00">LoginComponent</text>
</g>
<!-- LoginComponent&#45;&gt;AppModule -->
<g id="edge6" class="edge">
<title>LoginComponent&#45;&gt;AppModule</title>
<path fill="none" stroke="black" d="M841.28,-84.91C841.28,-84.91 841.28,-103.79 841.28,-103.79"/>
<polygon fill="black" stroke="black" points="837.78,-103.79 841.28,-113.79 844.78,-103.79 837.78,-103.79"/>
</g>
<!-- MyTodoComponent -->
<g id="node7" class="node">
<title>MyTodoComponent</title>
<polygon fill="#ffffb3" stroke="black" points="724.33,-84.8 593.67,-84.8 593.67,-48.8 724.33,-48.8 724.33,-84.8"/>
<text text-anchor="middle" x="659" y="-62.6" font-family="Times,serif" font-size="14.00">MyTodoComponent</text>
</g>
<!-- MyTodoComponent&#45;&gt;AppModule -->
<g id="edge7" class="edge">
<title>MyTodoComponent&#45;&gt;AppModule</title>
<path fill="none" stroke="black" d="M659,-85.04C659,-100.37 659,-119.8 659,-119.8 659,-119.8 814.91,-119.8 814.91,-119.8"/>
<polygon fill="black" stroke="black" points="814.91,-123.3 824.91,-119.8 814.91,-116.3 814.91,-123.3"/>
</g>
<!-- NavbarComponent -->
<g id="node8" class="node">
<title>NavbarComponent</title>
<polygon fill="#ffffb3" stroke="black" points="576.03,-84.8 453.97,-84.8 453.97,-48.8 576.03,-48.8 576.03,-84.8"/>
<text text-anchor="middle" x="515" y="-62.6" font-family="Times,serif" font-size="14.00">NavbarComponent</text>
</g>
<!-- NavbarComponent&#45;&gt;AppModule -->
<g id="edge8" class="edge">
<title>NavbarComponent&#45;&gt;AppModule</title>
<path fill="none" stroke="black" d="M515,-84.82C515,-102.17 515,-125.8 515,-125.8 515,-125.8 815.24,-125.8 815.24,-125.8"/>
<polygon fill="black" stroke="black" points="815.24,-129.3 825.24,-125.8 815.24,-122.3 815.24,-129.3"/>
</g>
<!-- NotFoundComponent -->
<g id="node9" class="node">
<title>NotFoundComponent</title>
<polygon fill="#ffffb3" stroke="black" points="436.12,-84.8 297.88,-84.8 297.88,-48.8 436.12,-48.8 436.12,-84.8"/>
<text text-anchor="middle" x="367" y="-62.6" font-family="Times,serif" font-size="14.00">NotFoundComponent</text>
</g>
<!-- NotFoundComponent&#45;&gt;AppModule -->
<g id="edge9" class="edge">
<title>NotFoundComponent&#45;&gt;AppModule</title>
<path fill="none" stroke="black" d="M367,-84.91C367,-104.14 367,-131.8 367,-131.8 367,-131.8 815.23,-131.8 815.23,-131.8"/>
<polygon fill="black" stroke="black" points="815.23,-135.3 825.23,-131.8 815.23,-128.3 815.23,-135.3"/>
</g>
<!-- RegisterComponent -->
<g id="node10" class="node">
<title>RegisterComponent</title>
<polygon fill="#ffffb3" stroke="black" points="279.99,-84.8 152.01,-84.8 152.01,-48.8 279.99,-48.8 279.99,-84.8"/>
<text text-anchor="middle" x="216" y="-62.6" font-family="Times,serif" font-size="14.00">RegisterComponent</text>
</g>
<!-- RegisterComponent&#45;&gt;AppModule -->
<g id="edge10" class="edge">
<title>RegisterComponent&#45;&gt;AppModule</title>
<path fill="none" stroke="black" d="M216,-85.08C216,-106.12 216,-137.8 216,-137.8 216,-137.8 815.29,-137.8 815.29,-137.8"/>
<polygon fill="black" stroke="black" points="815.29,-141.3 825.29,-137.8 815.29,-134.3 815.29,-141.3"/>
</g>
<!-- TodoComponent -->
<g id="node11" class="node">
<title>TodoComponent</title>
<polygon fill="#ffffb3" stroke="black" points="134.38,-84.8 23.62,-84.8 23.62,-48.8 134.38,-48.8 134.38,-84.8"/>
<text text-anchor="middle" x="79" y="-62.6" font-family="Times,serif" font-size="14.00">TodoComponent</text>
</g>
<!-- TodoComponent&#45;&gt;AppModule -->
<g id="edge11" class="edge">
<title>TodoComponent&#45;&gt;AppModule</title>
<path fill="none" stroke="black" d="M79,-85.05C79,-107.82 79,-143.8 79,-143.8 79,-143.8 815.19,-143.8 815.19,-143.8"/>
<polygon fill="black" stroke="black" points="815.19,-147.3 825.19,-143.8 815.19,-140.3 815.19,-147.3"/>
</g>
<!-- AppComponent  -->
<g id="node14" class="node">
<title>AppComponent </title>
<polygon fill="#80b1d3" stroke="black" points="921.44,-214.8 812.56,-214.8 812.56,-178.8 921.44,-178.8 921.44,-214.8"/>
<text text-anchor="middle" x="867" y="-192.6" font-family="Times,serif" font-size="14.00">AppComponent </text>
</g>
<!-- AppModule&#45;&gt;AppComponent  -->
<g id="edge13" class="edge">
<title>AppModule&#45;&gt;AppComponent </title>
<path fill="none" stroke="black" stroke-dasharray="1,5" d="M867,-149.91C867,-149.91 867,-168.79 867,-168.79"/>
<polygon fill="black" stroke="black" points="863.5,-168.79 867,-178.79 870.5,-168.79 863.5,-168.79"/>
</g>
<!-- AppRoutingModule -->
<g id="node13" class="node">
<title>AppRoutingModule</title>
<polygon fill="#8dd3c7" stroke="black" points="1831.28,-84.8 1828.28,-88.8 1807.28,-88.8 1804.28,-84.8 1702.72,-84.8 1702.72,-48.8 1831.28,-48.8 1831.28,-84.8"/>
<text text-anchor="middle" x="1767" y="-62.6" font-family="Times,serif" font-size="14.00">AppRoutingModule</text>
</g>
<!-- AppRoutingModule&#45;&gt;AppModule -->
<g id="edge12" class="edge">
<title>AppRoutingModule&#45;&gt;AppModule</title>
<path fill="none" stroke="black" d="M1767,-85.05C1767,-107.82 1767,-143.8 1767,-143.8 1767,-143.8 918.9,-143.8 918.9,-143.8"/>
<polygon fill="black" stroke="black" points="918.9,-140.3 908.9,-143.8 918.9,-147.3 918.9,-140.3"/>
</g>
</g>
</svg>
