<?xml version="1.0" encoding="UTF-8" standalone="no"?>
<!DOCTYPE svg PUBLIC "-//W3C//DTD SVG 1.1//EN"
 "http://www.w3.org/Graphics/SVG/1.1/DTD/svg11.dtd">
<!-- Generated by graphviz version 5.0.0 (20220707.1540)
 -->
<!-- Title: dependencies Pages: 1 -->
<svg width="1863pt" height="247pt"
 viewBox="0.00 0.00 1863.00 246.80" xmlns="http://www.w3.org/2000/svg" xmlns:xlink="http://www.w3.org/1999/xlink">
<g id="graph0" class="graph" transform="scale(1 1) rotate(0) translate(4 242.8)">
<title>dependencies</title>
<polygon fill="white" stroke="transparent" points="-4,4 -4,-242.8 1859,-242.8 1859,4 -4,4"/>
<text text-anchor="middle" x="927.5" y="-8.2" font-family="sans-serif" font-size="14.00">dependencies</text>
<g id="clust1" class="cluster">
<title>cluster_AppModule</title>
<polygon fill="none" stroke="black" stroke-dasharray="1,5" points="8,-32.8 8,-230.8 1847,-230.8 1847,-32.8 8,-32.8"/>
</g>
<g id="clust2" class="cluster">
<title>cluster_AppModule_declarations</title>
<polygon fill="none" stroke="black" points="168,-40.8 168,-92.8 1839,-92.8 1839,-40.8 168,-40.8"/>
</g>
<g id="clust14" class="cluster">
<title>cluster_AppModule_imports</title>
<polygon fill="none" stroke="black" points="16,-40.8 16,-92.8 160,-92.8 160,-40.8 16,-40.8"/>
</g>
<g id="clust16" class="cluster">
<title>cluster_AppModule_bootstrap</title>
<polygon fill="none" stroke="black" points="819,-170.8 819,-222.8 943,-222.8 943,-170.8 819,-170.8"/>
</g>
<!-- AppComponent -->
<g id="node1" class="node">
<title>AppComponent</title>
<polygon fill="#ffffb3" stroke="black" points="1830.94,-84.8 1725.06,-84.8 1725.06,-48.8 1830.94,-48.8 1830.94,-84.8"/>
<text text-anchor="middle" x="1778" y="-62.6" font-family="Times,serif" font-size="14.00">AppComponent</text>
</g>
<!-- AppModule -->
<g id="node12" class="node">
<title>AppModule</title>
<polygon fill="#8dd3c7" stroke="black" points="922.66,-149.8 919.66,-153.8 898.66,-153.8 895.66,-149.8 839.34,-149.8 839.34,-113.8 922.66,-113.8 922.66,-149.8"/>
<text text-anchor="middle" x="881" y="-127.6" font-family="Times,serif" font-size="14.00">AppModule</text>
</g>
<!-- AppComponent&#45;&gt;AppModule -->
<g id="edge1" class="edge">
<title>AppComponent&#45;&gt;AppModule</title>
<path fill="none" stroke="black" d="M1778,-85.05C1778,-107.82 1778,-143.8 1778,-143.8 1778,-143.8 932.76,-143.8 932.76,-143.8"/>
<polygon fill="black" stroke="black" points="932.76,-140.3 922.76,-143.8 932.76,-147.3 932.76,-140.3"/>
</g>
<!-- CompletedTodosComponent -->
<g id="node2" class="node">
<title>CompletedTodosComponent</title>
<polygon fill="#ffffb3" stroke="black" points="1706.77,-84.8 1529.23,-84.8 1529.23,-48.8 1706.77,-48.8 1706.77,-84.8"/>
<text text-anchor="middle" x="1618" y="-62.6" font-family="Times,serif" font-size="14.00">CompletedTodosComponent</text>
</g>
<!-- CompletedTodosComponent&#45;&gt;AppModule -->
<g id="edge2" class="edge">
<title>CompletedTodosComponent&#45;&gt;AppModule</title>
<path fill="none" stroke="black" d="M1618,-85.08C1618,-106.12 1618,-137.8 1618,-137.8 1618,-137.8 932.74,-137.8 932.74,-137.8"/>
<polygon fill="black" stroke="black" points="932.74,-134.3 922.74,-137.8 932.74,-141.3 932.74,-134.3"/>
</g>
<!-- DeletedTodosComponent -->
<g id="node3" class="node">
<title>DeletedTodosComponent</title>
<polygon fill="#ffffb3" stroke="black" points="1510.86,-84.8 1351.14,-84.8 1351.14,-48.8 1510.86,-48.8 1510.86,-84.8"/>
<text text-anchor="middle" x="1431" y="-62.6" font-family="Times,serif" font-size="14.00">DeletedTodosComponent</text>
</g>
<!-- DeletedTodosComponent&#45;&gt;AppModule -->
<g id="edge3" class="edge">
<title>DeletedTodosComponent&#45;&gt;AppModule</title>
<path fill="none" stroke="black" d="M1431,-84.91C1431,-104.14 1431,-131.8 1431,-131.8 1431,-131.8 932.79,-131.8 932.79,-131.8"/>
<polygon fill="black" stroke="black" points="932.79,-128.3 922.79,-131.8 932.79,-135.3 932.79,-128.3"/>
</g>
<!-- FavouriteTodosComponent -->
<g id="node4" class="node">
<title>FavouriteTodosComponent</title>
<polygon fill="#ffffb3" stroke="black" points="1332.99,-84.8 1163.01,-84.8 1163.01,-48.8 1332.99,-48.8 1332.99,-84.8"/>
<text text-anchor="middle" x="1248" y="-62.6" font-family="Times,serif" font-size="14.00">FavouriteTodosComponent</text>
</g>
<!-- FavouriteTodosComponent&#45;&gt;AppModule -->
<g id="edge4" class="edge">
<title>FavouriteTodosComponent&#45;&gt;AppModule</title>
<path fill="none" stroke="black" d="M1248,-84.82C1248,-102.17 1248,-125.8 1248,-125.8 1248,-125.8 932.74,-125.8 932.74,-125.8"/>
<polygon fill="black" stroke="black" points="932.74,-122.3 922.74,-125.8 932.74,-129.3 932.74,-122.3"/>
</g>
<!-- FooterComponent -->
<g id="node5" class="node">
<title>FooterComponent</title>
<polygon fill="#ffffb3" stroke="black" points="1144.88,-84.8 1027.12,-84.8 1027.12,-48.8 1144.88,-48.8 1144.88,-84.8"/>
<text text-anchor="middle" x="1086" y="-62.6" font-family="Times,serif" font-size="14.00">FooterComponent</text>
</g>
<!-- FooterComponent&#45;&gt;AppModule -->
<g id="edge5" class="edge">
<title>FooterComponent&#45;&gt;AppModule</title>
<path fill="none" stroke="black" d="M1086,-85.04C1086,-100.37 1086,-119.8 1086,-119.8 1086,-119.8 932.98,-119.8 932.98,-119.8"/>
<polygon fill="black" stroke="black" points="932.98,-116.3 922.98,-119.8 932.98,-123.3 932.98,-116.3"/>
</g>
<!-- LoginComponent -->
<g id="node6" class="node">
<title>LoginComponent</title>
<polygon fill="#ffffb3" stroke="black" points="1009.27,-84.8 894.73,-84.8 894.73,-48.8 1009.27,-48.8 1009.27,-84.8"/>
<text text-anchor="middle" x="952" y="-62.6" font-family="Times,serif" font-size="14.00">LoginComponent</text>
</g>
<!-- LoginComponent&#45;&gt;AppModule -->
<g id="edge6" class="edge">
<title>LoginComponent&#45;&gt;AppModule</title>
<path fill="none" stroke="black" d="M908.72,-84.91C908.72,-84.91 908.72,-103.79 908.72,-103.79"/>
<polygon fill="black" stroke="black" points="905.22,-103.79 908.72,-113.79 912.22,-103.79 905.22,-103.79"/>
</g>
<!-- MyTodoComponent -->
<g id="node7" class="node">
<title>MyTodoComponent</title>
<polygon fill="#ffffb3" stroke="black" points="876.33,-84.8 745.67,-84.8 745.67,-48.8 876.33,-48.8 876.33,-84.8"/>
<text text-anchor="middle" x="811" y="-62.6" font-family="Times,serif" font-size="14.00">MyTodoComponent</text>
</g>
<!-- MyTodoComponent&#45;&gt;AppModule -->
<g id="edge7" class="edge">
<title>MyTodoComponent&#45;&gt;AppModule</title>
<path fill="none" stroke="black" d="M857.67,-84.91C857.67,-84.91 857.67,-103.79 857.67,-103.79"/>
<polygon fill="black" stroke="black" points="854.17,-103.79 857.67,-113.79 861.17,-103.79 854.17,-103.79"/>
</g>
<!-- NavbarComponent -->
<g id="node8" class="node">
<title>NavbarComponent</title>
<polygon fill="#ffffb3" stroke="black" points="728.03,-84.8 605.97,-84.8 605.97,-48.8 728.03,-48.8 728.03,-84.8"/>
<text text-anchor="middle" x="667" y="-62.6" font-family="Times,serif" font-size="14.00">NavbarComponent</text>
</g>
<!-- NavbarComponent&#45;&gt;AppModule -->
<g id="edge8" class="edge">
<title>NavbarComponent&#45;&gt;AppModule</title>
<path fill="none" stroke="black" d="M667,-85.04C667,-100.37 667,-119.8 667,-119.8 667,-119.8 829.23,-119.8 829.23,-119.8"/>
<polygon fill="black" stroke="black" points="829.23,-123.3 839.23,-119.8 829.23,-116.3 829.23,-123.3"/>
</g>
<!-- NotFoundComponent -->
<g id="node9" class="node">
<title>NotFoundComponent</title>
<polygon fill="#ffffb3" stroke="black" points="588.12,-84.8 449.88,-84.8 449.88,-48.8 588.12,-48.8 588.12,-84.8"/>
<text text-anchor="middle" x="519" y="-62.6" font-family="Times,serif" font-size="14.00">NotFoundComponent</text>
</g>
<!-- NotFoundComponent&#45;&gt;AppModule -->
<g id="edge9" class="edge">
<title>NotFoundComponent&#45;&gt;AppModule</title>
<path fill="none" stroke="black" d="M519,-84.82C519,-102.17 519,-125.8 519,-125.8 519,-125.8 829.12,-125.8 829.12,-125.8"/>
<polygon fill="black" stroke="black" points="829.12,-129.3 839.12,-125.8 829.12,-122.3 829.12,-129.3"/>
</g>
<!-- RegisterComponent -->
<g id="node10" class="node">
<title>RegisterComponent</title>
<polygon fill="#ffffb3" stroke="black" points="431.99,-84.8 304.01,-84.8 304.01,-48.8 431.99,-48.8 431.99,-84.8"/>
<text text-anchor="middle" x="368" y="-62.6" font-family="Times,serif" font-size="14.00">RegisterComponent</text>
</g>
<!-- RegisterComponent&#45;&gt;AppModule -->
<g id="edge10" class="edge">
<title>RegisterComponent&#45;&gt;AppModule</title>
<path fill="none" stroke="black" d="M368,-84.91C368,-104.14 368,-131.8 368,-131.8 368,-131.8 829.02,-131.8 829.02,-131.8"/>
<polygon fill="black" stroke="black" points="829.02,-135.3 839.02,-131.8 829.02,-128.3 829.02,-135.3"/>
</g>
<!-- TodoComponent -->
<g id="node11" class="node">
<title>TodoComponent</title>
<polygon fill="#ffffb3" stroke="black" points="286.38,-84.8 175.62,-84.8 175.62,-48.8 286.38,-48.8 286.38,-84.8"/>
<text text-anchor="middle" x="231" y="-62.6" font-family="Times,serif" font-size="14.00">TodoComponent</text>
</g>
<!-- TodoComponent&#45;&gt;AppModule -->
<g id="edge11" class="edge">
<title>TodoComponent&#45;&gt;AppModule</title>
<path fill="none" stroke="black" d="M231,-85.08C231,-106.12 231,-137.8 231,-137.8 231,-137.8 828.85,-137.8 828.85,-137.8"/>
<polygon fill="black" stroke="black" points="828.85,-141.3 838.85,-137.8 828.85,-134.3 828.85,-141.3"/>
</g>
<!-- AppComponent  -->
<g id="node14" class="node">
<title>AppComponent </title>
<polygon fill="#80b1d3" stroke="black" points="935.44,-214.8 826.56,-214.8 826.56,-178.8 935.44,-178.8 935.44,-214.8"/>
<text text-anchor="middle" x="881" y="-192.6" font-family="Times,serif" font-size="14.00">AppComponent </text>
</g>
<!-- AppModule&#45;&gt;AppComponent  -->
<g id="edge13" class="edge">
<title>AppModule&#45;&gt;AppComponent </title>
<path fill="none" stroke="black" stroke-dasharray="1,5" d="M881,-149.91C881,-149.91 881,-168.79 881,-168.79"/>
<polygon fill="black" stroke="black" points="877.5,-168.79 881,-178.79 884.5,-168.79 877.5,-168.79"/>
</g>
<!-- AppRoutingModule -->
<g id="node13" class="node">
<title>AppRoutingModule</title>
<polygon fill="#8dd3c7" stroke="black" points="152.28,-84.8 149.28,-88.8 128.28,-88.8 125.28,-84.8 23.72,-84.8 23.72,-48.8 152.28,-48.8 152.28,-84.8"/>
<text text-anchor="middle" x="88" y="-62.6" font-family="Times,serif" font-size="14.00">AppRoutingModule</text>
</g>
<!-- AppRoutingModule&#45;&gt;AppModule -->
<g id="edge12" class="edge">
<title>AppRoutingModule&#45;&gt;AppModule</title>
<path fill="none" stroke="black" d="M88,-85.05C88,-107.82 88,-143.8 88,-143.8 88,-143.8 829.2,-143.8 829.2,-143.8"/>
<polygon fill="black" stroke="black" points="829.2,-147.3 839.2,-143.8 829.2,-140.3 829.2,-147.3"/>
</g>
</g>
</svg>
